<svg width="90" height="232" viewBox="0 0 90 232" fill="none" xmlns="http://www.w3.org/2000/svg">
<path d="M58.4121 0.0449219H29.9933C28.994 0.0449219 28.0357 0.441876 27.3291 1.14847C26.6225 1.85506 26.2255 2.81341 26.2255 3.81268V16.2866C26.2255 17.2858 26.6225 18.2442 27.3291 18.9508C28.0357 19.6574 28.994 20.0543 29.9933 20.0543H34.7027V38.7444H53.7027V20.0543H58.4121C59.4114 20.0543 60.3697 19.6574 61.0763 18.9508C61.7829 18.2442 62.1799 17.2858 62.1799 16.2866V3.81268C62.1799 2.81341 61.7829 1.85506 61.0763 1.14847C60.3697 0.441877 59.4114 0.0449245 58.4121 0.0449219Z" fill="#283618"/>
<path d="M86.8766 114.206C69.4721 88.7381 60.5745 58.4154 61.4586 27.5814C61.4744 26.8699 61.2435 26.1749 60.8051 25.6144C60.3666 25.0539 59.7477 24.6623 59.0534 24.5063V19.1165H29.0393V24.4315H28.6258C28.2024 24.432 27.7838 24.5198 27.3959 24.6894C27.0081 24.859 26.6593 25.1067 26.3715 25.4171C26.0837 25.7276 25.8629 26.094 25.7231 26.4935C25.5832 26.8931 25.5272 27.3172 25.5585 27.7393C27.9231 60.7006 19.9386 90.2596 1.60495 116.416C0.549945 117.919 0.0109603 119.724 0.0688929 121.56L3.35077 223.078C3.42965 225.342 4.38001 227.489 6.00349 229.069C7.62698 230.65 9.79813 231.542 12.0638 231.56H79.9511C82.2426 231.541 84.4363 230.629 86.0647 229.016C87.6932 227.404 88.6278 225.22 88.6693 222.928L89.9341 124.362C89.9715 120.745 88.9049 117.202 86.8766 114.206Z" fill="#BC6C25"/>
<path opacity="0.2" d="M52.4878 4.10938C52.4878 6.26527 51.6314 8.33288 50.107 9.85733C48.5825 11.3818 46.5149 12.2382 44.359 12.2382C42.2031 12.2382 40.1355 11.3818 38.6111 9.85733C37.0866 8.33288 36.2302 6.26527 36.2302 4.10938" fill="black"/>
<path d="M76.1299 147.927H67.9093C67.1244 142.834 64.5429 138.191 60.6317 134.836C56.7204 131.481 51.7377 129.637 46.5849 129.637C41.432 129.637 36.4493 131.481 32.5381 134.836C28.6268 138.191 26.0453 142.834 25.2605 147.927H17.0393C16.1646 147.927 15.3003 148.116 14.5055 148.482C13.7108 148.847 13.0044 149.38 12.4349 150.044C11.8653 150.707 11.4461 151.487 11.2059 152.328C10.9657 153.169 10.9101 154.052 11.0431 154.916L19.9726 212.958H71.2466L82.0927 155.112C82.257 154.236 82.2262 153.334 82.0024 152.471C81.7787 151.608 81.3676 150.805 80.7983 150.119C80.229 149.433 79.5156 148.881 78.7087 148.502C77.9018 148.124 77.0213 147.927 76.1299 147.927Z" fill="#283618"/>
</svg>
