<svg width="485" height="484" viewBox="0 0 485 484" fill="none" xmlns="http://www.w3.org/2000/svg">
<path d="M242.508 483.508C376.025 483.508 484.262 375.271 484.262 241.754C484.262 108.237 376.025 0 242.508 0C108.991 0 0.754059 108.237 0.754059 241.754C0.754059 375.271 108.991 483.508 242.508 483.508Z" fill="#283618"/>
<path opacity="0.2" d="M242.508 418.211C201.684 418.211 162.123 404.055 130.566 378.157C99.0088 352.258 77.4078 316.219 69.4437 276.179C61.4795 236.14 67.6449 194.577 86.8893 158.574C106.134 122.57 137.267 94.3535 174.983 78.7309C212.7 63.1084 254.666 61.0468 293.732 72.8975C332.798 84.7482 366.547 109.778 389.227 143.722C411.908 177.666 422.117 218.424 418.115 259.051C414.114 299.678 396.149 337.661 367.282 366.528C350.935 382.965 331.49 395.996 310.072 404.868C288.655 413.739 265.69 418.274 242.508 418.211ZM242.508 76.1798C151.21 76.1798 76.9338 150.456 76.9338 241.754C76.9338 333.052 151.21 407.328 242.508 407.328C333.806 407.328 408.082 333.052 408.082 241.754C408.082 150.456 333.806 76.1798 242.508 76.1798Z" fill="black"/>
<path d="M242.508 412.77C336.957 412.77 413.524 336.203 413.524 241.754C413.524 147.305 336.957 70.7383 242.508 70.7383C148.059 70.7383 71.4924 147.305 71.4924 241.754C71.4924 336.203 148.059 412.77 242.508 412.77Z" fill="#BC6C25"/>
<path d="M115.327 173.372C114.03 170.832 113.247 168.061 113.022 165.218C112.796 162.374 113.133 159.515 114.014 156.802C114.894 154.089 116.301 151.576 118.153 149.407C120.005 147.239 122.267 145.456 124.809 144.162C127.35 142.868 130.122 142.087 132.965 141.865C135.809 141.642 138.668 141.982 141.38 142.866C144.092 143.749 146.603 145.158 148.77 147.013C150.937 148.867 152.717 151.131 154.009 153.674L202.325 248.552C203.622 251.092 204.405 253.863 204.631 256.706C204.856 259.55 204.519 262.409 203.638 265.122C202.758 267.835 201.351 270.348 199.499 272.516C197.647 274.685 195.385 276.468 192.844 277.762C190.302 279.056 187.531 279.837 184.687 280.059C181.844 280.282 178.984 279.942 176.272 279.058C173.56 278.175 171.049 276.766 168.882 274.911C166.715 273.057 164.935 270.793 163.644 268.25L115.327 173.372Z" fill="#FF6584"/>
<path opacity="0.2" d="M120.717 183.954L118.487 179.576C129.616 170.928 142.684 164.569 157.168 159.877L159.398 164.256C143.722 167.521 130.386 173.561 120.717 183.954Z" fill="black"/>
<path opacity="0.2" d="M131.123 204.39L128.893 200.011C140.022 191.363 153.091 185.004 167.574 180.313L169.804 184.692C154.129 187.956 140.793 193.997 131.123 204.39Z" fill="black"/>
<path opacity="0.2" d="M141.53 224.825L139.3 220.446C150.429 211.799 163.498 205.439 177.981 200.748L180.211 205.127C164.536 208.391 151.199 214.432 141.53 224.825Z" fill="black"/>
<path opacity="0.2" d="M151.936 245.261L149.706 240.882C160.835 232.234 173.904 225.875 188.388 221.183L190.617 225.562C174.942 228.827 161.606 234.868 151.936 245.261Z" fill="black"/>
<path opacity="0.2" d="M162.343 265.696L160.113 261.317C171.242 252.669 184.311 246.31 198.794 241.619L201.024 245.998C185.349 249.262 172.013 255.303 162.343 265.696Z" fill="black"/>
<path d="M79.0791 208.891C77.7825 206.351 76.9992 203.58 76.774 200.737C76.5489 197.894 76.8863 195.034 77.7669 192.322C78.6475 189.609 80.0541 187.097 81.9062 184.928C83.7584 182.759 86.0198 180.977 88.5612 179.683C91.1026 178.389 93.8741 177.608 96.7174 177.386C99.5606 177.163 102.42 177.503 105.132 178.386C107.843 179.27 110.354 180.679 112.521 182.533C114.688 184.387 116.468 186.65 117.76 189.193L166.077 284.071C168.681 289.2 169.144 295.153 167.362 300.622C165.581 306.092 161.701 310.63 156.575 313.24C151.449 315.851 145.496 316.319 140.025 314.544C134.554 312.768 130.011 308.892 127.395 303.769L79.0791 208.891Z" fill="#FF6584"/>
<path opacity="0.2" d="M84.4682 219.474L82.2382 215.095C93.3673 206.447 106.436 200.088 120.919 195.396L123.149 199.775C107.474 203.04 94.1378 209.081 84.4682 219.474Z" fill="black"/>
<path opacity="0.2" d="M94.8748 239.909L92.6448 235.53C103.774 226.882 116.843 220.523 131.326 215.832L133.556 220.211C117.881 223.475 104.544 229.516 94.8748 239.909Z" fill="black"/>
<path opacity="0.2" d="M105.281 260.344L103.051 255.965C114.181 247.318 127.249 240.958 141.733 236.267L143.963 240.646C128.287 243.91 114.951 249.951 105.281 260.344Z" fill="black"/>
<path opacity="0.2" d="M115.688 280.78L113.458 276.401C124.587 267.753 137.656 261.394 152.139 256.702L154.369 261.081C138.694 264.346 125.358 270.387 115.688 280.78Z" fill="black"/>
<path opacity="0.2" d="M126.095 301.215L123.865 296.836C134.994 288.189 148.062 281.829 162.546 277.138L164.776 281.517C149.1 284.781 135.764 290.822 126.095 301.215Z" fill="black"/>
<path d="M356.778 247.195L356.93 247.196C362.134 247.239 367.231 245.713 371.555 242.817C375.879 239.921 379.229 235.788 381.169 230.959C385.16 220.873 387.171 210.112 387.093 199.265C386.821 153.355 349.47 115.69 303.563 115.055C284.012 114.781 264.968 121.277 249.659 133.44C234.35 145.604 223.719 162.687 219.566 181.794C215.414 200.9 217.996 220.855 226.876 238.276C235.755 255.696 250.385 269.51 268.286 277.375C273.017 279.47 278.27 280.086 283.357 279.143C288.444 278.199 293.127 275.741 296.792 272.09C304.653 264.187 314.001 257.919 324.296 253.646C334.592 249.373 345.631 247.181 356.778 247.195Z" fill="#E6E6E6"/>
<path d="M313.246 221.543C328.702 221.543 341.231 209.014 341.231 193.559C341.231 178.103 328.702 165.574 313.246 165.574C297.791 165.574 285.262 178.103 285.262 193.559C285.262 209.014 297.791 221.543 313.246 221.543Z" fill="#F9A825"/>
<path d="M252.426 190.412C254.247 190.412 255.723 188.936 255.723 187.115C255.723 185.294 254.247 183.818 252.426 183.818C250.606 183.818 249.13 185.294 249.13 187.115C249.13 188.936 250.606 190.412 252.426 190.412Z" fill="#BC6C25"/>
<path d="M143.598 193.521C145.419 193.521 146.895 192.045 146.895 190.225C146.895 188.404 145.419 186.928 143.598 186.928C141.777 186.928 140.301 188.404 140.301 190.225C140.301 192.045 141.777 193.521 143.598 193.521Z" fill="#BC6C25"/>
<path d="M269.996 156.246C271.817 156.246 273.293 154.77 273.293 152.95C273.293 151.129 271.817 149.653 269.996 149.653C268.175 149.653 266.699 151.129 266.699 152.95C266.699 154.77 268.175 156.246 269.996 156.246Z" fill="#BC6C25"/>
<path d="M269.902 251.269C271.723 251.269 273.199 249.793 273.199 247.973C273.199 246.152 271.723 244.676 269.902 244.676C268.082 244.676 266.606 246.152 266.606 247.973C266.606 249.793 268.082 251.269 269.902 251.269Z" fill="#BC6C25"/>
<path d="M335.199 149.437C337.02 149.437 338.496 147.961 338.496 146.141C338.496 144.32 337.02 142.844 335.199 142.844C333.379 142.844 331.903 144.32 331.903 146.141C331.903 147.961 333.379 149.437 335.199 149.437Z" fill="#BC6C25"/>
<path d="M122.207 239.609C124.028 239.609 125.504 238.133 125.504 236.313C125.504 234.492 124.028 233.016 122.207 233.016C120.386 233.016 118.91 234.492 118.91 236.313C118.91 238.133 120.386 239.609 122.207 239.609Z" fill="#BC6C25"/>
<path d="M146.305 287.027C148.125 287.027 149.601 285.551 149.601 283.731C149.601 281.91 148.125 280.434 146.305 280.434C144.484 280.434 143.008 281.91 143.008 283.731C143.008 285.551 144.484 287.027 146.305 287.027Z" fill="#BC6C25"/>
<path d="M297.7 302.387C304.569 302.387 310.137 296.818 310.137 289.949C310.137 283.08 304.569 277.512 297.7 277.512C290.83 277.512 285.262 283.08 285.262 289.949C285.262 296.818 290.83 302.387 297.7 302.387Z" fill="#FF6584"/>
<path opacity="0.2" d="M307.028 290.727C307.028 293.201 306.045 295.573 304.295 297.323C302.546 299.072 300.173 300.055 297.7 300.055C295.226 300.055 292.853 299.072 291.104 297.323C289.354 295.573 288.371 293.201 288.371 290.727" fill="black"/>
<path opacity="0.2" d="M288.371 289.172C288.371 286.698 289.354 284.325 291.104 282.576C292.853 280.827 295.226 279.844 297.7 279.844C300.173 279.844 302.546 280.827 304.295 282.576C306.045 284.325 307.028 286.698 307.028 289.172" fill="black"/>
<path d="M293.035 286.84C293.465 286.84 293.813 286.318 293.813 285.674C293.813 285.03 293.465 284.508 293.035 284.508C292.606 284.508 292.258 285.03 292.258 285.674C292.258 286.318 292.606 286.84 293.035 286.84Z" fill="#FF6584"/>
<path d="M297.7 285.285C298.129 285.285 298.477 284.763 298.477 284.119C298.477 283.475 298.129 282.953 297.7 282.953C297.27 282.953 296.922 283.475 296.922 284.119C296.922 284.763 297.27 285.285 297.7 285.285Z" fill="#FF6584"/>
<path d="M297.7 295.391C298.129 295.391 298.477 294.869 298.477 294.225C298.477 293.581 298.129 293.059 297.7 293.059C297.27 293.059 296.922 293.581 296.922 294.225C296.922 294.869 297.27 295.391 297.7 295.391Z" fill="#FF6584"/>
<path d="M302.364 289.172C302.793 289.172 303.141 288.65 303.141 288.006C303.141 287.362 302.793 286.84 302.364 286.84C301.934 286.84 301.586 287.362 301.586 288.006C301.586 288.65 301.934 289.172 302.364 289.172Z" fill="#FF6584"/>
<path d="M301.586 297.723C302.016 297.723 302.364 297.201 302.364 296.557C302.364 295.913 302.016 295.391 301.586 295.391C301.157 295.391 300.809 295.913 300.809 296.557C300.809 297.201 301.157 297.723 301.586 297.723Z" fill="#FF6584"/>
<path d="M292.258 293.836C292.687 293.836 293.035 293.314 293.035 292.67C293.035 292.026 292.687 291.504 292.258 291.504C291.829 291.504 291.481 292.026 291.481 292.67C291.481 293.314 291.829 293.836 292.258 293.836Z" fill="#FF6584"/>
<path d="M322.575 268.961C329.444 268.961 335.012 263.393 335.012 256.524C335.012 249.655 329.444 244.086 322.575 244.086C315.705 244.086 310.137 249.655 310.137 256.524C310.137 263.393 315.705 268.961 322.575 268.961Z" fill="#FF6584"/>
<path opacity="0.2" d="M331.903 257.301C331.903 259.775 330.92 262.148 329.171 263.897C327.421 265.646 325.048 266.629 322.575 266.629C320.101 266.629 317.728 265.646 315.979 263.897C314.229 262.148 313.246 259.775 313.246 257.301" fill="black"/>
<path opacity="0.2" d="M313.246 255.746C313.246 253.272 314.229 250.9 315.979 249.15C317.728 247.401 320.101 246.418 322.575 246.418C325.048 246.418 327.421 247.401 329.171 249.15C330.92 250.9 331.903 253.272 331.903 255.746" fill="black"/>
<path d="M317.91 253.414C318.34 253.414 318.688 252.892 318.688 252.248C318.688 251.604 318.34 251.082 317.91 251.082C317.481 251.082 317.133 251.604 317.133 252.248C317.133 252.892 317.481 253.414 317.91 253.414Z" fill="#FF6584"/>
<path d="M322.575 251.859C323.004 251.859 323.352 251.337 323.352 250.693C323.352 250.05 323.004 249.527 322.575 249.527C322.145 249.527 321.797 250.05 321.797 250.693C321.797 251.337 322.145 251.859 322.575 251.859Z" fill="#FF6584"/>
<path d="M322.575 261.965C323.004 261.965 323.352 261.443 323.352 260.799C323.352 260.155 323.004 259.633 322.575 259.633C322.145 259.633 321.797 260.155 321.797 260.799C321.797 261.443 322.145 261.965 322.575 261.965Z" fill="#FF6584"/>
<path d="M327.239 255.746C327.668 255.746 328.016 255.224 328.016 254.58C328.016 253.936 327.668 253.414 327.239 253.414C326.809 253.414 326.461 253.936 326.461 254.58C326.461 255.224 326.809 255.746 327.239 255.746Z" fill="#FF6584"/>
<path d="M326.461 264.297C326.891 264.297 327.239 263.775 327.239 263.131C327.239 262.487 326.891 261.965 326.461 261.965C326.032 261.965 325.684 262.487 325.684 263.131C325.684 263.775 326.032 264.297 326.461 264.297Z" fill="#FF6584"/>
<path d="M317.133 260.41C317.562 260.41 317.91 259.888 317.91 259.244C317.91 258.6 317.562 258.078 317.133 258.078C316.704 258.078 316.356 258.6 316.356 259.244C316.356 259.888 316.704 260.41 317.133 260.41Z" fill="#FF6584"/>
<path d="M347.45 286.063C354.319 286.063 359.887 280.494 359.887 273.625C359.887 266.756 354.319 261.188 347.45 261.188C340.58 261.188 335.012 266.756 335.012 273.625C335.012 280.494 340.58 286.063 347.45 286.063Z" fill="#283618"/>
<path opacity="0.2" d="M356.778 274.402C356.778 276.876 355.795 279.249 354.046 280.998C352.296 282.748 349.923 283.731 347.45 283.731C344.976 283.731 342.603 282.748 340.854 280.998C339.104 279.249 338.121 276.876 338.121 274.402" fill="black"/>
<path opacity="0.2" d="M338.121 272.848C338.121 270.374 339.104 268.001 340.854 266.252C342.603 264.502 344.976 263.52 347.45 263.52C349.923 263.52 352.296 264.502 354.046 266.252C355.795 268.001 356.778 270.374 356.778 272.848" fill="black"/>
<path d="M342.785 270.516C343.215 270.516 343.563 269.994 343.563 269.35C343.563 268.706 343.215 268.184 342.785 268.184C342.356 268.184 342.008 268.706 342.008 269.35C342.008 269.994 342.356 270.516 342.785 270.516Z" fill="#283618"/>
<path d="M347.45 268.961C347.879 268.961 348.227 268.439 348.227 267.795C348.227 267.151 347.879 266.629 347.45 266.629C347.02 266.629 346.672 267.151 346.672 267.795C346.672 268.439 347.02 268.961 347.45 268.961Z" fill="#283618"/>
<path d="M347.45 279.067C347.879 279.067 348.227 278.544 348.227 277.901C348.227 277.257 347.879 276.734 347.45 276.734C347.02 276.734 346.672 277.257 346.672 277.901C346.672 278.544 347.02 279.067 347.45 279.067Z" fill="#283618"/>
<path d="M352.114 272.848C352.543 272.848 352.891 272.326 352.891 271.682C352.891 271.038 352.543 270.516 352.114 270.516C351.684 270.516 351.336 271.038 351.336 271.682C351.336 272.326 351.684 272.848 352.114 272.848Z" fill="#283618"/>
<path d="M351.336 281.399C351.766 281.399 352.114 280.877 352.114 280.233C352.114 279.589 351.766 279.067 351.336 279.067C350.907 279.067 350.559 279.589 350.559 280.233C350.559 280.877 350.907 281.399 351.336 281.399Z" fill="#283618"/>
<path d="M342.008 277.512C342.437 277.512 342.785 276.99 342.785 276.346C342.785 275.702 342.437 275.18 342.008 275.18C341.579 275.18 341.231 275.702 341.231 276.346C341.231 276.99 341.579 277.512 342.008 277.512Z" fill="#283618"/>
<path d="M285.262 287.617C292.131 287.617 297.7 282.049 297.7 275.18C297.7 268.311 292.131 262.742 285.262 262.742C278.393 262.742 272.824 268.311 272.824 275.18C272.824 282.049 278.393 287.617 285.262 287.617Z" fill="#283618"/>
<path opacity="0.2" d="M294.59 275.957C294.59 278.431 293.607 280.804 291.858 282.553C290.109 284.303 287.736 285.285 285.262 285.285C282.788 285.285 280.415 284.303 278.666 282.553C276.917 280.804 275.934 278.431 275.934 275.957" fill="black"/>
<path opacity="0.2" d="M275.934 274.402C275.934 271.928 276.917 269.556 278.666 267.806C280.415 266.057 282.788 265.074 285.262 265.074C287.736 265.074 290.109 266.057 291.858 267.806C293.607 269.556 294.59 271.928 294.59 274.402" fill="black"/>
<path d="M280.598 272.07C281.027 272.07 281.375 271.548 281.375 270.904C281.375 270.26 281.027 269.738 280.598 269.738C280.169 269.738 279.821 270.26 279.821 270.904C279.821 271.548 280.169 272.07 280.598 272.07Z" fill="#283618"/>
<path d="M285.262 270.516C285.691 270.516 286.039 269.994 286.039 269.35C286.039 268.706 285.691 268.184 285.262 268.184C284.833 268.184 284.485 268.706 284.485 269.35C284.485 269.994 284.833 270.516 285.262 270.516Z" fill="#283618"/>
<path d="M285.262 280.621C285.691 280.621 286.039 280.099 286.039 279.455C286.039 278.811 285.691 278.289 285.262 278.289C284.833 278.289 284.485 278.811 284.485 279.455C284.485 280.099 284.833 280.621 285.262 280.621Z" fill="#283618"/>
<path d="M289.926 274.402C290.355 274.402 290.703 273.88 290.703 273.236C290.703 272.592 290.355 272.07 289.926 272.07C289.497 272.07 289.149 272.592 289.149 273.236C289.149 273.88 289.497 274.402 289.926 274.402Z" fill="#283618"/>
<path d="M289.149 282.953C289.578 282.953 289.926 282.431 289.926 281.787C289.926 281.143 289.578 280.621 289.149 280.621C288.719 280.621 288.371 281.143 288.371 281.787C288.371 282.431 288.719 282.953 289.149 282.953Z" fill="#283618"/>
<path d="M279.821 279.067C280.25 279.067 280.598 278.544 280.598 277.901C280.598 277.257 280.25 276.734 279.821 276.734C279.391 276.734 279.043 277.257 279.043 277.901C279.043 278.544 279.391 279.067 279.821 279.067Z" fill="#283618"/>
<path d="M313.246 293.059C320.115 293.059 325.684 287.49 325.684 280.621C325.684 273.752 320.115 268.184 313.246 268.184C306.377 268.184 300.809 273.752 300.809 280.621C300.809 287.49 306.377 293.059 313.246 293.059Z" fill="#283618"/>
<path opacity="0.2" d="M322.575 281.399C322.575 282.624 322.333 283.837 321.864 284.968C321.396 286.1 320.709 287.128 319.842 287.995C318.976 288.861 317.948 289.548 316.816 290.017C315.684 290.485 314.471 290.727 313.246 290.727C312.021 290.727 310.808 290.485 309.677 290.017C308.545 289.548 307.517 288.861 306.65 287.995C305.784 287.128 305.097 286.1 304.628 284.968C304.16 283.837 303.918 282.624 303.918 281.399" fill="black"/>
<path opacity="0.2" d="M303.918 279.844C303.918 278.619 304.16 277.406 304.628 276.274C305.097 275.142 305.784 274.114 306.65 273.248C307.517 272.382 308.545 271.695 309.677 271.226C310.808 270.757 312.021 270.516 313.246 270.516C314.471 270.516 315.684 270.757 316.816 271.226C317.948 271.695 318.976 272.382 319.842 273.248C320.709 274.114 321.396 275.142 321.864 276.274C322.333 277.406 322.575 278.619 322.575 279.844" fill="black"/>
<path d="M308.582 277.512C309.012 277.512 309.36 276.99 309.36 276.346C309.36 275.702 309.012 275.18 308.582 275.18C308.153 275.18 307.805 275.702 307.805 276.346C307.805 276.99 308.153 277.512 308.582 277.512Z" fill="#283618"/>
<path d="M313.246 275.957C313.676 275.957 314.024 275.435 314.024 274.791C314.024 274.147 313.676 273.625 313.246 273.625C312.817 273.625 312.469 274.147 312.469 274.791C312.469 275.435 312.817 275.957 313.246 275.957Z" fill="#283618"/>
<path d="M313.246 286.063C313.676 286.063 314.024 285.541 314.024 284.897C314.024 284.253 313.676 283.731 313.246 283.731C312.817 283.731 312.469 284.253 312.469 284.897C312.469 285.541 312.817 286.063 313.246 286.063Z" fill="#283618"/>
<path d="M317.91 279.844C318.34 279.844 318.688 279.322 318.688 278.678C318.688 278.034 318.34 277.512 317.91 277.512C317.481 277.512 317.133 278.034 317.133 278.678C317.133 279.322 317.481 279.844 317.91 279.844Z" fill="#283618"/>
<path d="M317.133 288.395C317.562 288.395 317.91 287.873 317.91 287.229C317.91 286.585 317.562 286.063 317.133 286.063C316.704 286.063 316.356 286.585 316.356 287.229C316.356 287.873 316.704 288.395 317.133 288.395Z" fill="#283618"/>
<path d="M307.805 284.508C308.234 284.508 308.582 283.986 308.582 283.342C308.582 282.698 308.234 282.176 307.805 282.176C307.376 282.176 307.028 282.698 307.028 283.342C307.028 283.986 307.376 284.508 307.805 284.508Z" fill="#283618"/>
<path d="M332.68 306.274C339.549 306.274 345.117 300.705 345.117 293.836C345.117 286.967 339.549 281.399 332.68 281.399C325.811 281.399 320.242 286.967 320.242 293.836C320.242 300.705 325.811 306.274 332.68 306.274Z" fill="#FF6584"/>
<path opacity="0.2" d="M342.008 294.614C342.008 297.087 341.025 299.46 339.276 301.21C337.527 302.959 335.154 303.942 332.68 303.942C330.206 303.942 327.833 302.959 326.084 301.21C324.335 299.46 323.352 297.087 323.352 294.614" fill="black"/>
<path opacity="0.2" d="M323.352 293.059C323.352 290.585 324.335 288.212 326.084 286.463C327.833 284.713 330.206 283.731 332.68 283.731C335.154 283.731 337.527 284.713 339.276 286.463C341.025 288.212 342.008 290.585 342.008 293.059" fill="black"/>
<path d="M328.016 290.727C328.445 290.727 328.793 290.205 328.793 289.561C328.793 288.917 328.445 288.395 328.016 288.395C327.587 288.395 327.239 288.917 327.239 289.561C327.239 290.205 327.587 290.727 328.016 290.727Z" fill="#FF6584"/>
<path d="M332.68 289.172C333.109 289.172 333.457 288.65 333.457 288.006C333.457 287.362 333.109 286.84 332.68 286.84C332.251 286.84 331.903 287.362 331.903 288.006C331.903 288.65 332.251 289.172 332.68 289.172Z" fill="#FF6584"/>
<path d="M332.68 299.278C333.109 299.278 333.457 298.756 333.457 298.112C333.457 297.468 333.109 296.946 332.68 296.946C332.251 296.946 331.903 297.468 331.903 298.112C331.903 298.756 332.251 299.278 332.68 299.278Z" fill="#FF6584"/>
<path d="M337.344 293.059C337.773 293.059 338.121 292.537 338.121 291.893C338.121 291.249 337.773 290.727 337.344 290.727C336.915 290.727 336.567 291.249 336.567 291.893C336.567 292.537 336.915 293.059 337.344 293.059Z" fill="#FF6584"/>
<path d="M336.567 301.609C336.996 301.609 337.344 301.087 337.344 300.443C337.344 299.799 336.996 299.277 336.567 299.277C336.137 299.277 335.789 299.799 335.789 300.443C335.789 301.087 336.137 301.609 336.567 301.609Z" fill="#FF6584"/>
<path d="M327.239 297.723C327.668 297.723 328.016 297.201 328.016 296.557C328.016 295.913 327.668 295.391 327.239 295.391C326.809 295.391 326.461 295.913 326.461 296.557C326.461 297.201 326.809 297.723 327.239 297.723Z" fill="#FF6584"/>
<path d="M172.734 249.715C174.555 249.715 176.031 248.239 176.031 246.418C176.031 244.597 174.555 243.121 172.734 243.121C170.914 243.121 169.438 244.597 169.438 246.418C169.438 248.239 170.914 249.715 172.734 249.715Z" fill="#BC6C25"/>
<path d="M262.345 366.08L183.17 344.123L186.203 332.857L265.378 354.815L262.345 366.08Z" fill="#F9A825"/>
<path d="M250.738 362.315C223.625 367.505 195.773 367.505 168.66 362.315V350.637C195.834 355.14 223.564 355.14 250.738 350.637V362.315Z" fill="#F9A825"/>
<path d="M259.176 327.28C232.063 332.47 204.211 332.47 177.098 327.28V315.602C204.272 320.106 232.002 320.106 259.176 315.602V327.28Z" fill="#F9A825"/>
<path d="M287.558 341.294C260.445 346.484 232.593 346.484 205.48 341.294V329.616C232.654 334.119 260.384 334.119 287.558 329.616V341.294Z" fill="#F9A825"/>
<path d="M294.462 354.529C267.349 359.72 239.497 359.72 212.384 354.529V342.851C239.558 347.355 267.288 347.355 294.462 342.851V354.529Z" fill="#F9A825"/>
<path d="M318.531 371.824L237.554 385.426L235.676 373.904L316.652 360.302L318.531 371.824Z" fill="#F9A825"/>
<path d="M306.435 373.321C283.984 389.504 258.682 401.306 231.855 408.106L227.05 397.494C253.642 390.048 278.836 378.298 301.63 362.71L306.435 373.321Z" fill="#F9A825"/>
<path d="M299.689 337.911C277.238 354.094 251.935 365.895 225.109 372.695L220.304 362.084C246.896 354.638 272.09 342.887 294.884 327.299L299.689 337.911Z" fill="#F9A825"/>
<path d="M331.243 338.616C308.793 354.8 283.49 366.601 256.663 373.401L251.859 362.789C278.451 355.343 303.644 343.593 326.439 328.005L331.243 338.616Z" fill="#F9A825"/>
<path d="M342.962 347.717C320.511 363.9 295.208 375.701 268.381 382.501L263.577 371.89C290.169 364.444 315.362 352.693 338.157 337.105L342.962 347.717Z" fill="#F9A825"/>
<path d="M244.84 324.93H240.953V328.817H244.84V324.93Z" fill="#00BF71"/>
<path d="M256.5 392.559H252.614V396.446H256.5V392.559Z" fill="#00BF71"/>
<path d="M194.313 324.93H190.426V328.817H194.313V324.93Z" fill="#00BF71"/>
<path d="M284.485 373.125H280.598V377.012H284.485V373.125Z" fill="#00BF71"/>
<path d="M286.817 350.582H282.93V354.469H286.817V350.582Z" fill="#00BF71"/>
<path d="M222.701 339.94L218.198 336.885L216.452 339.458L220.955 342.513L222.701 339.94Z" fill="#00BF71"/>
<path d="M268.564 348.491L264.061 345.436L262.315 348.009L266.818 351.064L268.564 348.491Z" fill="#00BF71"/>
<path d="M212.595 363.261L208.092 360.206L206.347 362.779L210.849 365.834L212.595 363.261Z" fill="#00BF71"/>
<path d="M241.101 363.035L244.156 358.532L241.583 356.786L238.528 361.289L241.101 363.035Z" fill="#00BF71"/>
<path d="M262.089 368.476L265.144 363.973L262.571 362.227L259.516 366.73L262.089 368.476Z" fill="#00BF71"/>
<path d="M318.063 349.819L321.118 345.316L318.545 343.57L315.49 348.073L318.063 349.819Z" fill="#00BF71"/>
</svg>
