<svg width="92" height="220" viewBox="0 0 92 220" fill="none" xmlns="http://www.w3.org/2000/svg">
<path d="M91.952 42.634L89.98 121.448L87.538 219.181H4.414L1.552 104.675L0 42.634H91.952Z" fill="#E6E6E6"/>
<path d="M51.4929 0.703857H39.7231V156.654H51.4929V0.703857Z" fill="#283618"/>
<path d="M86.0668 102.02L83.8406 214.04H8.07391L5.46564 82.7962C12.2917 80.8789 19.4395 80.388 26.4636 81.3541C33.4877 82.3202 40.2376 84.7226 46.2925 88.4116C58.9516 95.8986 73.173 99.9288 86.0668 102.02Z" fill="#BC6C25"/>
<path d="M26.8307 114.63H16.0308V125.43H26.8307V114.63Z" fill="#E6E6E6"/>
<path d="M34.1868 92.562H23.3869V103.362H34.1868V92.562Z" fill="#E6E6E6"/>
<path d="M57.3779 107.84L48.7033 101.406L42.2698 110.081L50.9444 116.514L57.3779 107.84Z" fill="#E6E6E6"/>
<path d="M76.8908 126.975L68.2162 120.542L61.7827 129.216L70.4572 135.65L76.8908 126.975Z" fill="#E6E6E6"/>
<path d="M43.7882 138.009L35.1136 131.576L28.6801 140.251L37.3546 146.684L43.7882 138.009Z" fill="#E6E6E6"/>
<path d="M69.1476 88.2418C70.3664 88.2418 71.3545 87.2538 71.3545 86.035C71.3545 84.8162 70.3664 83.8281 69.1476 83.8281C67.9288 83.8281 66.9408 84.8162 66.9408 86.035C66.9408 87.2538 67.9288 88.2418 69.1476 88.2418Z" fill="#BC6C25"/>
<path d="M24.2753 73.5297C25.4941 73.5297 26.4821 72.5416 26.4821 71.3228C26.4821 70.104 25.4941 69.116 24.2753 69.116C23.0565 69.116 22.0684 70.104 22.0684 71.3228C22.0684 72.5416 23.0565 73.5297 24.2753 73.5297Z" fill="#BC6C25"/>
<path d="M61.7915 58.0816C63.0103 58.0816 63.9984 57.0936 63.9984 55.8748C63.9984 54.656 63.0103 53.668 61.7915 53.668C60.5727 53.668 59.5847 54.656 59.5847 55.8748C59.5847 57.0936 60.5727 58.0816 61.7915 58.0816Z" fill="#BC6C25"/>
</svg>
